<svg width="206.00000000000003" height="12" xmlns="http://www.w3.org/2000/svg">
 <!-- Created with Method Draw - http://github.com/duopixel/Method-Draw/ -->

 <g>
  <title>background</title>
  <rect x="-1" y="-1" width="208" height="14" id="canvas_background" fill="none"/>
  <g id="canvasGrid" display="none">
   <rect id="svg_1" width="100%" height="100%" x="0" y="0" stroke-width="0" fill="url(#gridpattern)"/>
  </g>
 </g>
 <g>
  <title>Layer 1</title>
  <metadata id="svg_12">image/svg+xmlIceHandOrnamental Divider / Englische Liniedividerornamentenglische linie2009-03-21</metadata>
  <g id="svg_15" stroke="null">
   <g id="svg_14" transform="matrix(0.31758977767528346,0,0,-0.36649774020354925,-1920.50782260563,1879.4321406466274) " stroke="null">
    <title fill="#ffffff">Layer 1</title>
    <g id="svg_8" stroke="null">
     <path fill="#ffffff" id="svg_11" d="m6358.21935,5109.17687c0.84415,-1.90515 2.14832,-3.67003 3.84726,-5.11242c1.30304,-1.10599 2.84562,-2.01987 4.55439,-2.61647c1.42209,-0.49842 2.95822,-0.76867 4.49859,-0.76709c1.54022,-0.00158 3.07639,0.26867 4.49848,0.76709c1.70886,0.5966 3.25134,1.51048 4.55444,2.61647c1.69894,1.44239 3.00302,3.20727 3.84729,5.11242c0.27481,1.35211 0.41058,2.72966 0.31119,4.10102c-0.0477,0.66102 -0.14978,1.31948 -0.31119,1.96754c-0.31748,1.08263 -0.88107,2.11401 -1.66107,3.01357c-0.87604,1.01545 -2.01505,1.85868 -3.28614,2.50459c-1.53628,0.7816 -3.2568,1.28634 -5.01855,1.54898c-2.04608,0.30304 -4.15805,0.28654 -6.19663,-0.05165c-1.72991,-0.28864 -3.41391,-0.81464 -4.9093,-1.61109c-1.23697,-0.65797 -2.33859,-1.50831 -3.17932,-2.52252c-0.73321,-0.88112 -1.26443,-1.88156 -1.56204,-2.92927c-0.30924,-1.16487 -0.48764,-2.36046 -0.4372,-3.55582c0.03409,-0.83298 0.18122,-1.66321 0.4498,-2.46535zm21.5004,2.42743c-5.73352,0 -11.46692,0 -17.20035,0c-0.00119,1.04195 0.202,2.0916 0.67429,3.05698c0.42578,0.87704 1.07678,1.67573 1.90079,2.31839c0.97104,0.76146 2.16934,1.30342 3.44073,1.60644c1.84012,0.43894 3.83804,0.3976 5.64752,-0.12666c1.20377,-0.34847 2.32294,-0.92009 3.2172,-1.68903c0.78369,-0.66992 1.38614,-1.48779 1.76699,-2.37315c0.38648,-0.89182 0.5535,-1.84508 0.55283,-2.79297z" stroke="#000000"/>
     <path fill="#ffffff" id="svg_10" d="m6067.96805,5110.39057c91.49623,-3.23656 182.99255,-6.47313 274.48873,-9.70969c2.57004,-0.00759 5.18744,0.49265 7.37174,1.67014c2.12512,1.12717 3.75109,2.85924 4.72735,4.80421c0.33545,0.67153 0.62161,1.3649 0.80902,2.07663c0.27521,1.9946 0.31961,4.02143 -0.00784,6.01357c-0.90906,2.27321 -2.73621,4.27058 -5.08347,5.61154c-2.01486,1.15344 -4.4696,1.77243 -6.90475,1.65469c-91.80026,-2.82664 -183.60055,-5.65327 -275.40078,-8.47993c-1.23264,-0.01125 -2.48292,-0.15909 -3.62783,-0.56017c-0.52342,-0.19743 -1.08459,-0.46556 -1.31637,-0.93505c-0.14558,-0.34224 -0.06209,-0.73293 0.12364,-1.05236c0.33171,-0.53024 1.03739,-0.77821 1.69374,-0.90605c1.02441,-0.19392 2.08297,-0.1843 3.12682,-0.18753zm281.65551,1.21373c-59.24561,0 -118.49116,0 -177.73676,0c-0.01757,0.60344 0.37552,1.17259 0.94445,1.52071c0.8891,0.55252 2.00116,0.76483 3.07923,0.86461c0.68619,0.05398 1.37615,0.04357 2.06443,0.06567c54.82727,1.20586 109.65457,2.41171 164.4819,3.61757c1.68607,0.00714 3.41666,-0.39694 4.73316,-1.3145c1.2463,-0.85138 2.03585,-2.12082 2.30203,-3.44791c0.09021,-0.43087 0.13156,-0.86868 0.13156,-1.30615z" stroke="#000000"/>
     <path fill="#ffffff" id="svg_9" d="m6674.15655,5110.39057c-91.49628,-3.23656 -182.99256,-6.47313 -274.48886,-9.70969c-2.57004,-0.00759 -5.18738,0.49265 -7.37177,1.67014c-2.12509,1.12717 -3.75106,2.85924 -4.72732,4.80421c-0.33542,0.67153 -0.62161,1.3649 -0.80899,2.07663c-0.27527,1.9946 -0.31964,4.02143 0.00781,6.01357c0.90909,2.27321 2.73627,4.27058 5.08344,5.61154c2.01492,1.15344 4.46972,1.77243 6.90484,1.65469c91.80026,-2.82664 183.60056,-5.65327 275.40085,-8.47993c1.23267,-0.01125 2.48279,-0.15909 3.62781,-0.56017c0.52344,-0.19743 1.08453,-0.46556 1.31634,-0.93505c0.14557,-0.34224 0.06202,-0.73293 -0.12359,-1.05236c-0.33173,-0.53024 -1.03742,-0.77821 -1.69385,-0.90605c-1.02429,-0.19392 -2.08301,-0.1843 -3.12671,-0.18753zm-281.65567,1.21373c59.24567,0 118.4913,0 177.73685,0c0.01757,0.60344 -0.37543,1.17259 -0.9444,1.52071c-0.88898,0.55252 -2.00128,0.76483 -3.07916,0.86461c-0.68628,0.05398 -1.37629,0.04357 -2.06446,0.06567c-54.8273,1.20586 -109.65472,2.41171 -164.48202,3.61757c-1.68604,0.00714 -3.41666,-0.39694 -4.73316,-1.3145c-1.24633,-0.85138 -2.03588,-2.12082 -2.30203,-3.44791c-0.09012,-0.43087 -0.13162,-0.86868 -0.13162,-1.30615z" stroke="#000000"/>
    </g>
   </g>
  </g>
 </g>
</svg>